<svg id="visual" viewBox="0 0 900 600" width="900" height="600" xmlns="http://www.w3.org/2000/svg" xmlns:xlink="http://www.w3.org/1999/xlink" version="1.1"><rect x="0" y="0" width="900" height="600" fill="#000521"></rect><path d="M0 221L69 221L69 238L138 238L138 198L208 198L208 197L277 197L277 189L346 189L346 241L415 241L415 206L485 206L485 246L554 246L554 205L623 205L623 192L692 192L692 249L762 249L762 221L831 221L831 220L900 220L900 218L900 0L900 0L831 0L831 0L762 0L762 0L692 0L692 0L623 0L623 0L554 0L554 0L485 0L485 0L415 0L415 0L346 0L346 0L277 0L277 0L208 0L208 0L138 0L138 0L69 0L69 0L0 0Z" fill="#223b6d"></path><path d="M0 141L69 141L69 145L138 145L138 125L208 125L208 130L277 130L277 116L346 116L346 143L415 143L415 171L485 171L485 122L554 122L554 129L623 129L623 126L692 126L692 158L762 158L762 154L831 154L831 128L900 128L900 153L900 0L900 0L831 0L831 0L762 0L762 0L692 0L692 0L623 0L623 0L554 0L554 0L485 0L485 0L415 0L415 0L346 0L346 0L277 0L277 0L208 0L208 0L138 0L138 0L69 0L69 0L0 0Z" fill="#1a447e"></path><path d="M0 59L69 59L69 59L138 59L138 66L208 66L208 55L277 55L277 61L346 61L346 90L415 90L415 47L485 47L485 98L554 98L554 61L623 61L623 65L692 65L692 99L762 99L762 62L831 62L831 73L900 73L900 46L900 0L900 0L831 0L831 0L762 0L762 0L692 0L692 0L623 0L623 0L554 0L554 0L485 0L485 0L415 0L415 0L346 0L346 0L277 0L277 0L208 0L208 0L138 0L138 0L69 0L69 0L0 0Z" fill="#004e8f"></path></svg>